<svg width="20" height="20" viewBox="0 0 20 20" fill="none" xmlns="http://www.w3.org/2000/svg">
<g clip-path="url(#clip0_406_10637)">
<path fill-rule="evenodd" clip-rule="evenodd" d="M6.99998 8.75C6.99998 7.7835 7.78349 7 8.74998 7H15.75C16.7165 7 17.5 7.7835 17.5 8.75V15.75C17.5 16.7165 16.7165 17.5 15.75 17.5H8.74999C7.78349 17.5 6.99998 16.7165 6.99998 15.75V8.75ZM8.74998 8.5C8.61191 8.5 8.49998 8.61193 8.49998 8.75V15.75C8.49998 15.8881 8.61191 16 8.74999 16H15.75C15.8881 16 16 15.8881 16 15.75V8.75C16 8.61193 15.8881 8.5 15.75 8.5H8.74998Z" fill="#2A2A2A"/>
<path fill-rule="evenodd" clip-rule="evenodd" d="M3.75 5.5C3.75 4.5335 4.5335 3.75 5.5 3.75H13V5.25H5.5C5.36193 5.25 5.25 5.36193 5.25 5.5V13H3.75V5.5Z" fill="#2A2A2A"/>
</g>
<defs>
<clipPath id="clip0_406_10637">
<rect width="20" height="20" fill="white"/>
</clipPath>
</defs>
</svg>
