<svg width="24" height="24" viewBox="0 0 24 24" fill="none" xmlns="http://www.w3.org/2000/svg">
<circle cx="12" cy="12" r="12" fill="#F3F7FF"/>
<path fill-rule="evenodd" clip-rule="evenodd" d="M12.9457 12.3878C12.9388 12.5898 12.7731 12.75 12.5709 12.75H11.4291C11.2269 12.75 11.0612 12.5898 11.0543 12.3878L10.8882 7.51277C10.881 7.30078 11.0509 7.125 11.263 7.125H12.737C12.9491 7.125 13.119 7.30078 13.1118 7.51277L12.9457 12.3878ZM13.125 15.3719C13.125 16.0049 12.6204 16.5 12.003 16.5C11.3796 16.5 10.875 16.0049 10.875 15.3719C10.875 14.7451 11.3796 14.25 12.003 14.25C12.6204 14.25 13.125 14.7451 13.125 15.3719Z" fill="#0026D2"/>
</svg>
