<svg width="24" height="24" viewBox="0 0 24 24" fill="none" xmlns="http://www.w3.org/2000/svg">
<g clip-path="url(#clip0_406_9979)">
<path fill-rule="evenodd" clip-rule="evenodd" d="M8.3999 10.5C8.3999 9.34017 9.3401 8.39996 10.4999 8.39996H18.8999C20.0597 8.39996 20.9999 9.34016 20.9999 10.5V18.9C20.9999 20.0598 20.0597 21 18.8999 21H10.4999C9.34011 21 8.3999 20.0598 8.3999 18.9V10.5ZM10.4999 10.2C10.3342 10.2 10.1999 10.3343 10.1999 10.5V18.9C10.1999 19.0656 10.3342 19.2 10.4999 19.2H18.8999C19.0656 19.2 19.1999 19.0656 19.1999 18.9V10.5C19.1999 10.3343 19.0656 10.2 18.8999 10.2H10.4999Z" fill="#3F3F3F"/>
<path fill-rule="evenodd" clip-rule="evenodd" d="M4.5 6.6C4.5 5.4402 5.4402 4.5 6.6 4.5H15.6V6.3H6.6C6.43431 6.3 6.3 6.43431 6.3 6.6V15.6H4.5V6.6Z" fill="#3F3F3F"/>
</g>
<defs>
<clipPath id="clip0_406_9979">
<rect width="24" height="24" fill="white"/>
</clipPath>
</defs>
</svg>
