<svg width="24" height="24" viewBox="0 0 24 24" fill="none" xmlns="http://www.w3.org/2000/svg">
<circle cx="11.9985" cy="12.0002" r="11" fill="#666666"/>
<path fill-rule="evenodd" clip-rule="evenodd" d="M8.59559 7.40588C8.26755 7.07784 7.73569 7.07784 7.40765 7.40588C7.07961 7.73392 7.07961 8.26578 7.40765 8.59382L10.8139 12L7.40765 15.4063C7.07961 15.7343 7.07961 16.2662 7.40765 16.5942C7.73569 16.9223 8.26755 16.9223 8.59559 16.5942L12.0018 13.188L15.4077 16.5938C15.7357 16.9219 16.2675 16.9219 16.5956 16.5938C16.9236 16.2658 16.9236 15.7339 16.5956 15.4059L13.1898 12L16.5956 8.59421C16.9236 8.26617 16.9236 7.73431 16.5956 7.40627C16.2675 7.07823 15.7357 7.07823 15.4076 7.40627L12.0018 10.8121L8.59559 7.40588Z" fill="white"/>
</svg>
