<svg width="24" height="24" viewBox="0 0 24 24" fill="none" xmlns="http://www.w3.org/2000/svg">
<path d="M18.8691 3.72462C19.2618 3.40427 19.8408 3.42686 20.207 3.79298C20.5731 4.15909 20.5957 4.7381 20.2753 5.13087L20.207 5.20704L5.20696 20.207C4.81643 20.5976 4.18342 20.5976 3.79289 20.207C3.40237 19.8165 3.40237 19.1835 3.79289 18.793L18.7929 3.79298L18.8691 3.72462Z" fill="#2A2A2A"/>
<path d="M3.79298 3.79298C4.15909 3.42686 4.7381 3.40427 5.13087 3.72462L5.20704 3.79298L20.207 18.793L20.2754 18.8692C20.5958 19.2619 20.5732 19.8409 20.207 20.207C19.8409 20.5732 19.2619 20.5958 18.8692 20.2754L18.793 20.207L3.79298 5.20704L3.72462 5.13087C3.40427 4.7381 3.42686 4.15909 3.79298 3.79298Z" fill="#2A2A2A"/>
</svg>
