<svg width="20" height="20" viewBox="0 0 20 20" fill="none" xmlns="http://www.w3.org/2000/svg">
<g clip-path="url(#clip0_348_3954)">
<circle cx="9.9987" cy="10.0002" r="9.16667" fill="#666666"/>
<path fill-rule="evenodd" clip-rule="evenodd" d="M7.26185 6.07251C6.93381 5.74447 6.40195 5.74447 6.07391 6.07251C5.74587 6.40055 5.74587 6.93241 6.07391 7.26045L8.81344 9.99997L6.07391 12.7395C5.74587 13.0675 5.74587 13.5994 6.07391 13.9274C6.40195 14.2555 6.93381 14.2555 7.26185 13.9274L10.0014 11.1879L12.7406 13.9271C13.0686 14.2552 13.6005 14.2552 13.9285 13.9271C14.2566 13.5991 14.2566 13.0672 13.9285 12.7392L11.1893 9.99997L13.9285 7.26077C14.2566 6.93273 14.2566 6.40087 13.9285 6.07283C13.6005 5.74479 13.0686 5.74479 12.7406 6.07283L10.0014 8.81203L7.26185 6.07251Z" fill="white"/>
</g>
<defs>
<clipPath id="clip0_348_3954">
<rect width="20" height="20" fill="white"/>
</clipPath>
</defs>
</svg>
