<svg width="24" height="24" viewBox="0 0 24 24" fill="none" xmlns="http://www.w3.org/2000/svg">
<path fill-rule="evenodd" clip-rule="evenodd" d="M12 20.5992C16.7496 20.5992 20.6 16.7489 20.6 11.9992C20.6 7.24956 16.7496 3.39921 12 3.39921C7.25035 3.39921 3.4 7.24956 3.4 11.9992C3.4 16.7489 7.25035 20.5992 12 20.5992ZM12 21.9992C17.5228 21.9992 22 17.5221 22 11.9992C22 6.47636 17.5228 1.99921 12 1.99921C6.47715 1.99921 2 6.47636 2 11.9992C2 17.5221 6.47715 21.9992 12 21.9992Z" fill="#666666"/>
<path d="M12.2411 15.3016C12.8302 15.3016 13.3211 15.7829 13.3211 16.3754C13.3211 16.9679 12.8425 17.4616 12.2411 17.4616C11.652 17.4616 11.1611 16.9802 11.1611 16.3754C11.1611 15.7953 11.6398 15.3016 12.2411 15.3016Z" fill="#666666"/>
<path fill-rule="evenodd" clip-rule="evenodd" d="M12.1438 7.90153C11.2955 7.90153 10.6102 8.48164 10.4533 9.21076C10.372 9.58871 9.99975 9.8292 9.62179 9.7479C9.24384 9.66661 9.00335 9.29431 9.08465 8.91636C9.38441 7.52273 10.6559 6.50153 12.1438 6.50153C13.8424 6.50153 15.269 7.83912 15.269 9.53797C15.269 10.3032 14.9726 11.0022 14.4994 11.5317L14.4853 11.5475L13.6359 12.3895L13.6211 12.4022L13.615 12.4078C13.6065 12.4159 13.5906 12.4314 13.5691 12.4541C13.526 12.4996 13.4617 12.5731 13.3896 12.6733C13.2452 12.8744 13.0751 13.1761 12.9792 13.5717C12.8882 13.9474 12.5098 14.1782 12.1341 14.0871C11.7584 13.9961 11.5276 13.6177 11.6186 13.242C11.7655 12.6357 12.0266 12.1712 12.2526 11.8566C12.3658 11.6989 12.4715 11.5772 12.5522 11.4919C12.5926 11.4492 12.627 11.4153 12.6532 11.3905C12.6641 11.3803 12.6735 11.3715 12.6815 11.3643L13.4684 10.5842C13.7208 10.2953 13.869 9.92869 13.869 9.53797C13.869 8.66103 13.1188 7.90153 12.1438 7.90153Z" fill="#666666"/>
</svg>
