<svg width="24" height="24" viewBox="0 0 24 24" fill="none" xmlns="http://www.w3.org/2000/svg">
<g clip-path="url(#clip0_406_8864)">
<path fill-rule="evenodd" clip-rule="evenodd" d="M20.2071 3.79289C20.5976 4.18342 20.5976 4.81658 20.2071 5.20711L5.20711 20.2071C4.81658 20.5976 4.18342 20.5976 3.79289 20.2071C3.40237 19.8166 3.40237 19.1834 3.79289 18.7929L18.7929 3.79289C19.1834 3.40237 19.8166 3.40237 20.2071 3.79289Z" fill="#2A2A2A"/>
<path fill-rule="evenodd" clip-rule="evenodd" d="M3.29289 4.29289C3.68342 3.90237 4.31658 3.90237 4.70711 4.29289L19.7071 19.2929C20.0976 19.6834 20.0976 20.3166 19.7071 20.7071C19.3166 21.0976 18.6834 21.0976 18.2929 20.7071L3.29289 5.70711C2.90237 5.31658 2.90237 4.68342 3.29289 4.29289Z" fill="#2A2A2A"/>
</g>
<defs>
<clipPath id="clip0_406_8864">
<rect width="24" height="24" fill="white"/>
</clipPath>
</defs>
</svg>
